<svg id="图层_1" data-name="图层 1" xmlns="http://www.w3.org/2000/svg" viewBox="0 0 504 160"><defs><style>.cls-1{fill:#ffc000;}</style></defs><path class="cls-1" d="M80.49,0a80,80,0,1,0,80,80A80,80,0,0,0,80.49,0ZM116,24.15l-1.74,9.5a1.2,1.2,0,0,1-1.19,1h-12q-4.21,0-6.31,1.69t-2.83,5.89l-1.32,7.48a.59.59,0,0,0,.59.7h19.38a.61.61,0,0,1,.6.71l-1.63,9.13a1.19,1.19,0,0,1-1.18,1H89.57a1.2,1.2,0,0,0-1.19,1l-2.1,11.91a.6.6,0,0,0,.6.52h19.38a.6.6,0,0,1,.59.71l-1.62,9.13a1.2,1.2,0,0,1-1.18,1H84.78a.62.62,0,0,0-.55.4h0a0,0,0,0,0,0,0h0a.08.08,0,0,1,0,0h0l0,.11-5.6,31.81q-1.8,10-6.68,14.32t-15.7,4.33H45.59a.6.6,0,0,1-.59-.71l1.74-9.49a1.2,1.2,0,0,1,1.18-1h8.75c2.8,0,4.91-.58,6.31-1.75s2.35-3.1,2.83-5.83L71.43,86v-.08h0a.43.43,0,0,0-.43-.43H57.14a.6.6,0,0,1-.59-.7l1.52-9.13a1.2,1.2,0,0,1,1.19-1H72.68a.91.91,0,0,0,.83-.55v0h0c.13,0,2.14-12.13,2.14-12.13a.6.6,0,0,0-.58-.71H61.47a.59.59,0,0,1-.59-.7l1.51-9.12a1.21,1.21,0,0,1,1.19-1H76.71a1.19,1.19,0,0,0,1.19-1l1.27-7.31q1.8-10,7.16-14.32t15.22-4.33h13.84A.61.61,0,0,1,116,24.15Z"/><path class="cls-1" d="M207,140.25H182.62V18.65h85.14V43H207V67.32h36.46V91.66H207Z"/><path class="cls-1" d="M396.74,80a61.35,61.35,0,0,1-2.25,16.66,63.92,63.92,0,0,1-6.31,15,62.36,62.36,0,0,1-9.84,12.76,64.07,64.07,0,0,1-12.72,9.88,62.3,62.3,0,0,1-31.72,8.61,61.35,61.35,0,0,1-16.66-2.25,63.33,63.33,0,0,1-44-44,63,63,0,0,1,0-33.37,62.36,62.36,0,0,1,6.36-15,64.07,64.07,0,0,1,9.88-12.72,62.63,62.63,0,0,1,12.76-9.84,64.52,64.52,0,0,1,15-6.31,63,63,0,0,1,33.37,0,62.7,62.7,0,0,1,43.88,43.88A61.82,61.82,0,0,1,396.74,80Zm-24.17,0a37.5,37.5,0,0,0-3.05-15A38.57,38.57,0,0,0,349,44.34a38.78,38.78,0,0,0-30.15,0,39.85,39.85,0,0,0-12.3,8.27,38.93,38.93,0,0,0-8.31,12.3,37.67,37.67,0,0,0-3.05,15,37.14,37.14,0,0,0,3.05,15,39.19,39.19,0,0,0,20.61,20.56,38.78,38.78,0,0,0,30.15,0,38.77,38.77,0,0,0,12.29-8.31,39.81,39.81,0,0,0,8.27-12.25A37,37,0,0,0,372.57,80Z"/><path class="cls-1" d="M503.51,140.25H474L450.59,101,427.1,140.25H397.76l37.31-60.8-37.31-60.8H427.1l23.49,39.26L474,18.65h29.51l-37.32,60.8Z"/></svg>